<svg width="70" height="70" viewBox="0 0 20 20" fill="none" xmlns="http://www.w3.org/2000/svg">
<path d="M12 19V14.333C12 13.233 12 12.683 12.342 12.342C12.683 12 13.233 12 14.333 12H19M12.172 19H5C3.114 19 2.172 19 1.586 18.414C1 17.828 1 16.886 1 15V5C1 3.114 1 2.172 1.586 1.586C2.172 1 3.114 1 5 1H15C16.886 1 17.828 1 18.414 1.586C19 2.172 19 3.114 19 5V12.172C19 12.58 19 12.785 18.924 12.969C18.848 13.152 18.704 13.297 18.414 13.586L13.586 18.414C13.296 18.704 13.152 18.848 12.969 18.924C12.785 19 12.58 19 12.172 19Z" stroke="#D8DEE4" stroke-width="2"/>
</svg>
