<svg width="17" height="18" viewBox="0 0 17 18" fill="none" xmlns="http://www.w3.org/2000/svg">
<path d="M13.6 0.5C12.835 0.5 11.9 1.35 11.9 2.2H5.1C5.1 1.35 4.165 0.5 3.4 0.5H0V8.15C0 9 0.85 9.85 1.7 9.85H3.57C3.91 11.55 5.015 12.995 7.65 13.25V15.018C5.1 15.409 5.1 17.5 5.1 17.5H11.9C11.9 17.5 11.9 15.409 9.35 15.018V13.25C11.985 12.995 13.09 11.55 13.43 9.85H15.3C16.15 9.85 17 9 17 8.15V0.5H13.6ZM3.4 8.15H1.7V2.2H3.4V8.15ZM11.9 8.575C11.9 10.2155 11.407 11.55 8.5 11.55C5.6015 11.55 5.1 10.2155 5.1 8.575V3.9H11.9V8.575ZM15.3 8.15H13.6V2.2H15.3V8.15Z" fill="#656D76"/>
</svg>
