<svg width="16" height="18" viewBox="0 0 16 18" fill="none" xmlns="http://www.w3.org/2000/svg">
<path fill-rule="evenodd" clip-rule="evenodd" d="M11 0C11.1313 -2.7674e-09 11.2614 0.0258659 11.3827 0.0761206C11.504 0.126375 11.6142 0.200035 11.7071 0.292893C11.8 0.385752 11.8736 0.495991 11.9239 0.617317C11.9741 0.738642 12 0.868678 12 1C12 1.13132 11.9741 1.26136 11.9239 1.38268C11.8736 1.50401 11.8 1.61425 11.7071 1.70711C11.6142 1.79997 11.504 1.87362 11.3827 1.92388C11.2614 1.97413 11.1313 2 11 2H2V15C2 15.2652 2.10536 15.5196 2.29289 15.7071C2.48043 15.8946 2.73478 16 3 16H11C11.2652 16 11.5196 16.1054 11.7071 16.2929C11.8946 16.4804 12 16.7348 12 17C12 17.2652 11.8946 17.5196 11.7071 17.7071C11.5196 17.8946 11.2652 18 11 18H3C2.20435 18 1.44129 17.6839 0.87868 17.1213C0.316071 16.5587 0 15.7956 0 15V1C0 0.734784 0.105357 0.48043 0.292893 0.292893C0.48043 0.105357 0.734784 0 1 0H11ZM12.707 5.293C12.5672 5.15325 12.3891 5.05806 12.1953 5.01946C12.0014 4.98087 11.8005 5.00058 11.6178 5.07613C11.4351 5.15168 11.279 5.27966 11.169 5.44392C11.0591 5.60817 11.0002 5.80133 11 5.999V7.999H5C4.73478 7.999 4.48043 8.10436 4.29289 8.29189C4.10536 8.47943 4 8.73378 4 8.999C4 9.26422 4.10536 9.51857 4.29289 9.70611C4.48043 9.89364 4.73478 9.999 5 9.999H11V11.999C11 12.1968 11.0587 12.39 11.1686 12.5545C11.2785 12.7189 11.4346 12.847 11.6173 12.9227C11.8 12.9983 12.0011 13.0182 12.195 12.9796C12.389 12.941 12.5671 12.8458 12.707 12.706L15.707 9.706C15.8945 9.51847 15.9998 9.26416 15.9998 8.999C15.9998 8.73384 15.8945 8.47953 15.707 8.292L12.707 5.293Z" fill="#FF4242"/>
</svg>
