<svg width="18" height="17" viewBox="0 0 18 17" fill="none" xmlns="http://www.w3.org/2000/svg">
<path d="M8.94 7.99655C10.56 7.99655 11.82 6.64909 11.82 4.9954C11.82 3.3417 10.5 2.05549 8.88 2.05549C7.26 2.05549 6 3.40295 6 4.9954C6 6.64909 7.32 7.99655 8.94 7.99655ZM8.88 3.28045C8.94 3.28045 8.94 3.28045 8.88 3.28045C9.84 3.28045 10.62 4.07668 10.62 5.05664C10.62 6.03661 9.84 6.77159 8.88 6.77159C7.92 6.77159 7.2 5.97536 7.2 5.05664C7.2 4.07668 7.98 3.28045 8.88 3.28045Z" fill="#656D76"/>
<path d="M17.82 7.62906C16.68 6.58784 15.18 6.03661 13.62 6.09786H13.14C13.02 6.58784 12.84 7.01658 12.6 7.38407C12.96 7.32282 13.26 7.32282 13.62 7.32282C14.76 7.26157 15.9 7.62906 16.8 8.30279V12.7126H18V7.8128L17.82 7.62906Z" fill="#656D76"/>
<path d="M12.24 2.17799C12.54 1.44301 13.38 1.07553 14.16 1.38177C14.88 1.68801 15.24 2.54548 14.94 3.3417C14.7 3.89293 14.16 4.26042 13.62 4.26042C13.5 4.26042 13.32 4.26042 13.2 4.19917C13.26 4.50541 13.26 4.81165 13.26 5.05664V5.42413C13.38 5.42413 13.5 5.48538 13.62 5.48538C15.12 5.48538 16.32 4.26042 16.32 2.79047C16.32 1.25927 15.12 0.0343104 13.68 0.0343104C12.72 0.0343104 11.88 0.524294 11.4 1.38177C11.7 1.56551 12 1.8105 12.24 2.17799Z" fill="#656D76"/>
<path d="M5.4 7.44532C5.16 7.07783 4.98 6.64909 4.86 6.15911H4.38C2.82 6.09786 1.32 6.64909 0.18 7.62906L0 7.8128V12.7126H1.2V8.30279C2.16 7.62906 3.24 7.26157 4.38 7.32282C4.74 7.32282 5.1 7.38407 5.4 7.44532Z" fill="#656D76"/>
<path d="M4.38 5.42413C4.5 5.42413 4.62 5.42413 4.74 5.36288V4.9954C4.74 4.68916 4.74 4.38292 4.8 4.13793C4.68 4.19917 4.5 4.19917 4.38 4.19917C3.6 4.19917 2.94 3.52544 2.94 2.72922C2.94 1.933 3.6 1.25927 4.38 1.25927C4.98 1.25927 5.52 1.62676 5.76 2.17799C6 1.87175 6.36 1.56551 6.66 1.32052C5.88 0.0343105 4.26 -0.394425 3 0.401798C1.74 1.19802 1.32 2.85172 2.1 4.13793C2.58 4.93415 3.42 5.42413 4.38 5.42413Z" fill="#656D76"/>
<path d="M13.86 11.3039L13.74 11.1202C12.54 9.77274 10.86 8.97651 9.06 9.03776C7.26 8.97651 5.52 9.77274 4.32 11.1202L4.2 11.3039V15.9588C4.2 16.51 4.62 17 5.22 17H12.9C13.44 17 13.92 16.51 13.92 15.9588V11.3039H13.86ZM12.66 15.775H5.4V11.7327C6.36 10.7527 7.68 10.2627 9.06 10.2627C10.38 10.2015 11.7 10.7527 12.66 11.7327V15.775Z" fill="#656D76"/>
</svg>
