<svg width="16" height="16" viewBox="0 0 16 16" fill="none" xmlns="http://www.w3.org/2000/svg">
<path d="M8 15C9.38447 15 10.7378 14.5895 11.889 13.8203C13.0401 13.0511 13.9373 11.9579 14.4672 10.6788C14.997 9.3997 15.1356 7.99224 14.8655 6.63437C14.5954 5.2765 13.9287 4.02922 12.9497 3.05026C11.9708 2.07129 10.7235 1.4046 9.36563 1.13451C8.00776 0.86441 6.6003 1.00303 5.32121 1.53285C4.04213 2.06266 2.94888 2.95987 2.17971 4.11101C1.41054 5.26215 1 6.61553 1 8C1 9.15733 1.28 10.2486 1.77778 11.2099L1 15L4.79011 14.2222C5.75144 14.72 6.84344 15 8 15Z" stroke="#656D76" stroke-width="2" stroke-linecap="round" stroke-linejoin="round"/>
</svg>
