<svg width="21" height="17" viewBox="0 0 21 17" fill="none" xmlns="http://www.w3.org/2000/svg">
<path d="M3.9375 4.57692C3.9375 4.40351 4.00664 4.2372 4.12971 4.11458C4.25278 3.99196 4.4197 3.92308 4.59375 3.92308H13.7812C13.9553 3.92308 14.1222 3.99196 14.2453 4.11458C14.3684 4.2372 14.4375 4.40351 14.4375 4.57692C14.4375 4.75033 14.3684 4.91664 14.2453 5.03926C14.1222 5.16188 13.9553 5.23077 13.7812 5.23077H4.59375C4.4197 5.23077 4.25278 5.16188 4.12971 5.03926C4.00664 4.91664 3.9375 4.75033 3.9375 4.57692ZM11.1562 7.84615C10.9822 7.84615 10.8153 7.91504 10.6922 8.03766C10.5691 8.16028 10.5 8.32659 10.5 8.5C10.5 8.67341 10.5691 8.83972 10.6922 8.96234C10.8153 9.08496 10.9822 9.15385 11.1562 9.15385H13.7812C13.9553 9.15385 14.1222 9.08496 14.2453 8.96234C14.3684 8.83972 14.4375 8.67341 14.4375 8.5C14.4375 8.32659 14.3684 8.16028 14.2453 8.03766C14.1222 7.91504 13.9553 7.84615 13.7812 7.84615H11.1562ZM10.5 12.4231C10.5 12.2497 10.5691 12.0834 10.6922 11.9607C10.8153 11.8381 10.9822 11.7692 11.1562 11.7692H13.7812C13.9553 11.7692 14.1222 11.8381 14.2453 11.9607C14.3684 12.0834 14.4375 12.2497 14.4375 12.4231C14.4375 12.5965 14.3684 12.7628 14.2453 12.8854C14.1222 13.008 13.9553 13.0769 13.7812 13.0769H11.1562C10.9822 13.0769 10.8153 13.008 10.6922 12.8854C10.5691 12.7628 10.5 12.5965 10.5 12.4231ZM4.59375 7.84615C4.4197 7.84615 4.25278 7.91504 4.12971 8.03766C4.00664 8.16028 3.9375 8.32659 3.9375 8.5V12.4231C3.9375 12.5965 4.00664 12.7628 4.12971 12.8854C4.25278 13.008 4.4197 13.0769 4.59375 13.0769H8.53125C8.7053 13.0769 8.87222 13.008 8.99529 12.8854C9.11836 12.7628 9.1875 12.5965 9.1875 12.4231V8.5C9.1875 8.32659 9.11836 8.16028 8.99529 8.03766C8.87222 7.91504 8.7053 7.84615 8.53125 7.84615H4.59375ZM5.25 11.7692V9.15385H7.875V11.7692H5.25ZM0 2.61538C0 1.92174 0.276562 1.25651 0.768845 0.766028C1.26113 0.275549 1.92881 0 2.625 0H15.75C16.4462 0 17.1139 0.275549 17.6062 0.766028C18.0984 1.25651 18.375 1.92174 18.375 2.61538V3.92308C19.0712 3.92308 19.7389 4.19863 20.2312 4.68911C20.7234 5.17958 21 5.84482 21 6.53846V13.7308C21 14.5978 20.6543 15.4294 20.0389 16.0425C19.4236 16.6556 18.589 17 17.7188 17H3.28125C2.41101 17 1.57641 16.6556 0.961056 16.0425C0.345702 15.4294 0 14.5978 0 13.7308V2.61538ZM17.0625 2.61538C17.0625 2.26856 16.9242 1.93595 16.6781 1.69071C16.4319 1.44547 16.0981 1.30769 15.75 1.30769H2.625C2.2769 1.30769 1.94306 1.44547 1.69692 1.69071C1.45078 1.93595 1.3125 2.26856 1.3125 2.61538V13.7308C1.3125 14.251 1.51992 14.7499 1.88913 15.1178C2.25835 15.4856 2.7591 15.6923 3.28125 15.6923H17.7188C18.2409 15.6923 18.7417 15.4856 19.1109 15.1178C19.4801 14.7499 19.6875 14.251 19.6875 13.7308V6.53846C19.6875 6.19164 19.5492 5.85902 19.3031 5.61378C19.0569 5.36854 18.7231 5.23077 18.375 5.23077V13.7308C18.375 13.9042 18.3059 14.0705 18.1828 14.1931C18.0597 14.3157 17.8928 14.3846 17.7188 14.3846C17.5447 14.3846 17.3778 14.3157 17.2547 14.1931C17.1316 14.0705 17.0625 13.9042 17.0625 13.7308V2.61538Z" fill="#656D76"/>
</svg>
