<svg width="14" height="19" viewBox="0 0 14 19" fill="none" xmlns="http://www.w3.org/2000/svg">
<path d="M7.60402 5.67759C7.60402 5.49862 7.67909 5.32698 7.81272 5.20042C7.94636 5.07387 8.1276 5.00277 8.31658 5.00277H13.2874C13.4283 5.00289 13.5659 5.04253 13.683 5.11669C13.8001 5.19085 13.8913 5.2962 13.9452 5.41943C13.999 5.54266 14.0132 5.67825 13.9857 5.80908C13.9583 5.9399 13.8905 6.06009 13.791 6.15446L11.1535 8.65308C11.6761 8.74036 12.1578 8.88072 12.5711 9.08766C13.4309 9.51685 14 10.2429 14 11.2633C14 12.1324 13.5525 12.8378 12.8865 13.3057C12.2338 13.7655 11.3787 13.9985 10.4913 13.9985C9.19256 13.9985 8.33083 13.5235 7.95745 13.3183C7.79404 13.2282 7.67511 13.0804 7.62683 12.9072C7.57854 12.7341 7.60486 12.5499 7.69998 12.3952C7.7951 12.2404 7.95124 12.1278 8.13405 12.0821C8.31686 12.0363 8.51136 12.0612 8.67477 12.1513C8.98924 12.325 9.5802 12.6489 10.4913 12.6489C11.1307 12.6489 11.6723 12.4797 12.0371 12.2233C12.3887 11.9759 12.5749 11.652 12.5749 11.2633C12.5749 10.8134 12.3668 10.5111 11.907 10.2816C11.3958 10.0261 10.6006 9.88305 9.5593 9.88305C9.41846 9.88293 9.28081 9.84329 9.16374 9.76913C9.04668 9.69497 8.95544 9.58962 8.90156 9.46639C8.84768 9.34316 8.83357 9.20757 8.86102 9.07674C8.88846 8.94592 8.95622 8.82573 9.05575 8.73136L11.5668 6.35241H8.31658C8.1276 6.35241 7.94636 6.28131 7.81272 6.15476C7.67909 6.0282 7.60402 5.85656 7.60402 5.67759ZM2.73673 12.3907C2.45345 12.3592 2.16699 12.4148 1.91963 12.5493C1.67226 12.6837 1.47709 12.8899 1.3629 13.1375C1.28352 13.2972 1.14122 13.421 0.966522 13.4826C0.791824 13.5441 0.59863 13.5383 0.428363 13.4665C0.258096 13.3947 0.12431 13.2626 0.0556903 13.0985C-0.0129298 12.9344 -0.0109215 12.7513 0.0612844 12.5886C0.298661 12.0789 0.702148 11.6545 1.21265 11.3776C1.72316 11.1007 2.31386 10.9859 2.89824 11.05C3.45784 11.104 3.98039 11.3406 4.37753 11.7185C4.78986 12.1198 5.02834 12.6705 5.02834 13.3183C5.02834 14.7948 3.83693 15.511 3.01415 16.005C2.50301 16.3118 1.89305 16.6294 1.59377 17.1504H4.51339C4.70237 17.1504 4.88362 17.2215 5.01725 17.348C5.15088 17.4746 5.22595 17.6462 5.22595 17.8252C5.22595 18.0042 5.15088 18.1758 5.01725 18.3024C4.88362 18.4289 4.70237 18.5 4.51339 18.5H0.713043C0.52406 18.5 0.342816 18.4289 0.209184 18.3024C0.0755522 18.1758 0.000478748 18.0042 0.000478748 17.8252C0.000478748 16.2065 1.27074 15.4588 2.13152 14.937C3.11201 14.344 3.60416 14.0093 3.60416 13.3174C3.60416 12.998 3.49395 12.792 3.35713 12.6588C3.1893 12.5047 2.96961 12.41 2.73673 12.3907ZM2.95905 0.584976C3.07023 0.643421 3.16287 0.728976 3.22735 0.832764C3.29184 0.936553 3.32582 1.05479 3.32578 1.17522V6.79868H4.51529C4.70427 6.79868 4.88552 6.86978 5.01915 6.99633C5.15278 7.12289 5.22785 7.29453 5.22785 7.4735C5.22785 7.65247 5.15278 7.82412 5.01915 7.95067C4.88552 8.07722 4.70427 8.14832 4.51529 8.14832H0.713043C0.52406 8.14832 0.342816 8.07722 0.209184 7.95067C0.0755522 7.82412 0.000478748 7.65247 0.000478748 7.4735C0.000478748 7.29453 0.0755522 7.12289 0.209184 6.99633C0.342816 6.86978 0.52406 6.79868 0.713043 6.79868H1.90065V2.39258L1.09023 2.87215C0.929969 2.96701 0.736486 2.99769 0.552341 2.95745C0.368196 2.9172 0.208475 2.80933 0.108314 2.65756C0.00815218 2.50579 -0.0242445 2.32256 0.0182505 2.14817C0.0607454 1.97378 0.174651 1.82252 0.334909 1.72766L2.23508 0.602971C2.34301 0.538878 2.46712 0.503397 2.59447 0.500232C2.72181 0.497067 2.84772 0.526333 2.95905 0.584976Z" fill="#656D76"/>
</svg>
