<svg width="33" height="33" viewBox="0 0 33 33" fill="none" xmlns="http://www.w3.org/2000/svg">
<path d="M26.2306 0.0848572L32.9147 6.92057V32.9151H7.94547V33H33V7.00661L26.2306 0.0848572Z" fill="#909090"/>
<path d="M26.1477 0H7.86017V32.9151H32.9147V6.92057L26.1477 0Z" fill="#F4F4F4"/>
<path d="M0 1.76786V9.81396H24.1463V1.76786H0Z" fill="#7A7B7C"/>
<path d="M24.2749 9.67725H0.15617V1.62525H24.2749V9.67725Z" fill="#DD2025"/>
<path d="M8.15329 2.9865H6.58318V8.64364H7.81813V6.73554L8.09083 6.75086C8.3558 6.74638 8.61828 6.69982 8.86807 6.61296C9.08708 6.53907 9.28855 6.4224 9.46032 6.27C9.63511 6.12482 9.77292 5.9416 9.86276 5.73493C9.98324 5.39137 10.0263 5.02625 9.9889 4.66479C9.98139 4.40657 9.93525 4.15084 9.85195 3.90579C9.77611 3.72889 9.66357 3.56942 9.52148 3.43753C9.37939 3.30564 9.21087 3.20422 9.02665 3.13971C8.86736 3.08314 8.70279 3.04209 8.53531 3.01714C8.40848 2.99794 8.28041 2.9877 8.15209 2.9865M7.92505 5.69014H7.81813V3.94586H8.04998C8.15231 3.93862 8.25499 3.95403 8.35043 3.99095C8.44587 4.02788 8.53163 4.08537 8.60138 4.15918C8.74592 4.34895 8.82314 4.57993 8.82122 4.81682C8.82122 5.10675 8.82122 5.36957 8.55453 5.55461C8.3624 5.65828 8.14371 5.70614 7.92505 5.69014ZM12.3351 2.97118C12.2017 2.97118 12.072 2.98061 11.9807 2.98414L11.6948 2.99121H10.7577V8.64836H11.8605C12.282 8.65969 12.7016 8.58961 13.0955 8.44211C13.4125 8.31874 13.6933 8.11986 13.9124 7.86343C14.1254 7.60468 14.2784 7.30342 14.3605 6.98068C14.4548 6.61517 14.5009 6.23926 14.4974 5.86221C14.5207 5.4169 14.4856 4.97049 14.3929 4.53396C14.3049 4.21264 14.1402 3.9165 13.9124 3.67007C13.7336 3.47108 13.5148 3.31057 13.2697 3.19864C13.0592 3.10308 12.8378 3.03265 12.6102 2.98886C12.5196 2.97419 12.428 2.96748 12.3363 2.96882M12.1176 7.60886H11.9975V3.99771H12.0131C12.2608 3.96976 12.5113 4.0136 12.7339 4.12382C12.8969 4.25149 13.0297 4.41234 13.1231 4.59525C13.224 4.78775 13.2821 4.99903 13.2937 5.21518C13.3045 5.47446 13.2937 5.68661 13.2937 5.86221C13.2986 6.0645 13.2853 6.26682 13.2541 6.46682C13.217 6.67216 13.1486 6.87084 13.051 7.05611C12.9406 7.22836 12.7914 7.37351 12.615 7.48039C12.4667 7.57444 12.2912 7.61832 12.1152 7.60532M18.2179 2.99121H15.2987V8.64836H16.5336V6.40436H18.0953V5.35307H16.5336V4.0425H18.2155V2.99121" fill="#464648"/>
<path d="M23.4448 21.5148C23.4448 21.5148 27.2746 20.8336 27.2746 22.1171C27.2746 23.4005 24.902 22.8784 23.4448 21.5148ZM20.6133 21.6126C20.0048 21.7445 19.4118 21.9377 18.8438 22.189L19.3243 21.1283C19.8048 20.0675 20.3033 18.6214 20.3033 18.6214C20.8767 19.5682 21.5439 20.4572 22.2951 21.2756C21.7286 21.3584 21.1671 21.4718 20.6133 21.615V21.6126ZM19.0972 13.9519C19.0972 12.8335 19.466 12.5282 19.7531 12.5282C20.0403 12.5282 20.3634 12.6638 20.3742 13.6349C20.2807 14.6114 20.0723 15.574 19.7531 16.5035C19.316 15.7231 19.0898 14.8459 19.096 13.9555L19.0972 13.9519ZM13.5123 26.3458C12.3375 25.6563 15.9762 23.5337 16.6357 23.4654C16.6321 23.4665 14.7425 27.0671 13.5123 26.3458ZM28.393 22.2691C28.381 22.1513 28.2728 20.8466 25.9063 20.902C24.9198 20.8864 23.9339 20.9546 22.9594 21.1059C22.0155 20.1729 21.2027 19.1206 20.5424 17.9768C20.9584 16.7975 21.2101 15.5685 21.2908 14.3232C21.256 12.9089 20.9112 12.098 19.806 12.1098C18.7008 12.1216 18.5398 13.0704 18.6852 14.4823C18.8276 15.4311 19.0961 16.3575 19.4841 17.2378C19.4841 17.2378 18.9735 18.797 18.2984 20.348C17.6232 21.899 17.1619 22.7122 17.1619 22.7122C15.9879 23.0872 14.8827 23.6443 13.8884 24.3622C12.8985 25.2662 12.496 25.9604 13.0174 26.6546C13.4667 27.2533 15.0392 27.3888 16.4447 25.5821C17.1915 24.6489 17.8738 23.6677 18.487 22.6451C18.487 22.6451 20.6301 22.0688 21.2968 21.9108C21.9636 21.7529 22.7696 21.628 22.7696 21.628C22.7696 21.628 24.7266 23.5596 26.6138 23.4913C28.5011 23.4229 28.4098 22.3846 28.3978 22.2715" fill="#DD2025"/>
<path d="M26.0552 0.0907499V7.0125H32.8222L26.0552 0.0907499Z" fill="#909090"/>
<path d="M26.1477 0V6.92175L32.9147 6.92057L26.1477 0Z" fill="#F4F4F4"/>
<path d="M8.06079 2.89575H6.49068V8.55289H7.73043V6.64596L8.00433 6.66129C8.26931 6.65681 8.53179 6.61024 8.78158 6.52339C9.00057 6.44946 9.20203 6.3328 9.37383 6.18043C9.5473 6.03486 9.68385 5.85167 9.77266 5.64536C9.89315 5.3018 9.93618 4.93668 9.8988 4.57521C9.8913 4.317 9.84515 4.06127 9.76185 3.81621C9.68601 3.63932 9.57347 3.47985 9.43138 3.34796C9.2893 3.21607 9.12078 3.11464 8.93655 3.05014C8.77653 2.99302 8.61115 2.95157 8.44281 2.92639C8.31598 2.90719 8.18791 2.89695 8.05959 2.89575M7.83254 5.59939H7.72563V3.85511H7.95868C8.06101 3.84787 8.16369 3.86328 8.25913 3.9002C8.35457 3.93713 8.44033 3.99462 8.51008 4.06843C8.65462 4.2582 8.73184 4.48918 8.72992 4.72607C8.72992 5.016 8.72992 5.27882 8.46323 5.46386C8.2711 5.56753 8.05241 5.61421 7.83375 5.59821M12.2426 2.88043C12.1092 2.88043 11.9795 2.88986 11.8882 2.89339L11.6059 2.90046H10.6688V8.55761H11.7716C12.1931 8.56894 12.6127 8.49886 13.0066 8.35136C13.3236 8.22799 13.6044 8.02911 13.8235 7.77268C14.0365 7.51393 14.1895 7.21267 14.2716 6.88993C14.3659 6.52442 14.412 6.14851 14.4085 5.77146C14.4318 5.32615 14.3967 4.87974 14.304 4.44321C14.216 4.12189 14.0513 3.82575 13.8235 3.57932C13.6447 3.38033 13.4259 3.21982 13.1808 3.10789C12.9703 3.01233 12.7489 2.9419 12.5213 2.89811C12.4307 2.88344 12.3391 2.87673 12.2474 2.87807M12.0287 7.51811H11.9086V3.90696H11.9242C12.1719 3.87901 12.4225 3.92285 12.645 4.03307C12.808 4.16074 12.9408 4.32159 13.0342 4.5045C13.1351 4.697 13.1932 4.90828 13.2048 5.12443C13.2156 5.38371 13.2048 5.59586 13.2048 5.77146C13.2097 5.97375 13.1964 6.17607 13.1652 6.37607C13.1281 6.58141 13.0597 6.78009 12.9621 6.96536C12.8517 7.13761 12.7026 7.28276 12.5261 7.38964C12.3779 7.48369 12.2023 7.52757 12.0263 7.51457M18.1254 2.90046H15.2062V8.55761H16.4411V6.31361H18.0028V5.26232H16.4411V3.95175H18.123V2.90046" fill="white"/>
</svg>
