<svg width="18" height="18" viewBox="0 0 18 18" fill="none" xmlns="http://www.w3.org/2000/svg">
<path class="svg-icon" d="M9.5 6.25C9.5 6.05109 9.57902 5.86032 9.71967 5.71967C9.86032 5.57902 10.0511 5.5 10.25 5.5H13.75C13.9489 5.5 14.1397 5.57902 14.2803 5.71967C14.421 5.86032 14.5 6.05109 14.5 6.25C14.5 6.44891 14.421 6.63968 14.2803 6.78033C14.1397 6.92098 13.9489 7 13.75 7H10.25C10.0511 7 9.86032 6.92098 9.71967 6.78033C9.57902 6.63968 9.5 6.44891 9.5 6.25ZM10.25 11C10.0511 11 9.86032 11.079 9.71967 11.2197C9.57902 11.3603 9.5 11.5511 9.5 11.75C9.5 11.9489 9.57902 12.1397 9.71967 12.2803C9.86032 12.421 10.0511 12.5 10.25 12.5H13.75C13.9489 12.5 14.1397 12.421 14.2803 12.2803C14.421 12.1397 14.5 11.9489 14.5 11.75C14.5 11.5511 14.421 11.3603 14.2803 11.2197C14.1397 11.079 13.9489 11 13.75 11H10.25ZM7.78 5.78C7.85369 5.71134 7.91279 5.62854 7.95378 5.53654C7.99477 5.44454 8.01682 5.34522 8.01859 5.24452C8.02037 5.14382 8.00184 5.04379 7.96412 4.9504C7.9264 4.85701 7.87026 4.77218 7.79904 4.70096C7.72782 4.62974 7.64299 4.5736 7.5496 4.53588C7.45621 4.49816 7.35618 4.47963 7.25548 4.48141C7.15478 4.48319 7.05546 4.50523 6.96346 4.54622C6.87146 4.58721 6.78866 4.64631 6.72 4.72L5.25 6.19L4.78 5.72C4.63783 5.58752 4.44978 5.5154 4.25548 5.51882C4.06118 5.52225 3.87579 5.60097 3.73838 5.73838C3.60097 5.87579 3.52225 6.06118 3.51883 6.25548C3.5154 6.44978 3.58752 6.63783 3.72 6.78L4.72 7.78C4.86063 7.92045 5.05125 7.99934 5.25 7.99934C5.44875 7.99934 5.63937 7.92045 5.78 7.78L7.78 5.78ZM7.78 10.22C7.92045 10.3606 7.99934 10.5512 7.99934 10.75C7.99934 10.9488 7.92045 11.1394 7.78 11.28L5.78 13.28C5.63937 13.4205 5.44875 13.4993 5.25 13.4993C5.05125 13.4993 4.86063 13.4205 4.72 13.28L3.72 12.28C3.64631 12.2113 3.58721 12.1285 3.54622 12.0365C3.50523 11.9445 3.48319 11.8452 3.48141 11.7445C3.47963 11.6438 3.49816 11.5438 3.53588 11.4504C3.5736 11.357 3.62974 11.2722 3.70096 11.201C3.77218 11.1297 3.85701 11.0736 3.9504 11.0359C4.04379 10.9982 4.14382 10.9796 4.24452 10.9814C4.34523 10.9832 4.44454 11.0052 4.53654 11.0462C4.62854 11.0872 4.71134 11.1463 4.78 11.22L5.25 11.69L6.72 10.22C6.86063 10.0795 7.05125 10.0007 7.25 10.0007C7.44875 10.0007 7.63937 10.0795 7.78 10.22ZM3.25 0C2.38805 0 1.5614 0.34241 0.951903 0.951903C0.34241 1.5614 0 2.38805 0 3.25V14.75C0 15.612 0.34241 16.4386 0.951903 17.0481C1.5614 17.6576 2.38805 18 3.25 18H14.75C15.612 18 16.4386 17.6576 17.0481 17.0481C17.6576 16.4386 18 15.612 18 14.75V3.25C18 2.38805 17.6576 1.5614 17.0481 0.951903C16.4386 0.34241 15.612 0 14.75 0H3.25ZM1.5 3.25C1.5 2.284 2.284 1.5 3.25 1.5H14.75C15.716 1.5 16.5 2.284 16.5 3.25V14.75C16.5 15.2141 16.3156 15.6592 15.9874 15.9874C15.6592 16.3156 15.2141 16.5 14.75 16.5H3.25C2.78587 16.5 2.34075 16.3156 2.01256 15.9874C1.68437 15.6592 1.5 15.2141 1.5 14.75V3.25Z" fill="#656D76"/>
</svg>
