<svg width="28" height="10" viewBox="0 0 28 10" fill="none" xmlns="http://www.w3.org/2000/svg">
<path d="M22.1291 1.52991C22.0554 1.46125 21.9963 1.37845 21.9553 1.28645C21.9143 1.19445 21.8923 1.09513 21.8905 0.994432C21.8887 0.893729 21.9073 0.7937 21.945 0.700311C21.9827 0.606923 22.0389 0.522089 22.1101 0.450871C22.1813 0.379652 22.2661 0.323507 22.3595 0.285786C22.4529 0.248065 22.5529 0.229541 22.6536 0.231318C22.7543 0.233094 22.8536 0.255136 22.9456 0.296128C23.0376 0.33712 23.1204 0.396222 23.1891 0.469909L27.1891 4.46991C27.3296 4.61054 27.4084 4.80116 27.4084 4.99991C27.4084 5.19866 27.3296 5.38928 27.1891 5.52991L23.1891 9.52991C23.1204 9.6036 23.0376 9.6627 22.9456 9.70369C22.8536 9.74468 22.7543 9.76672 22.6536 9.7685C22.5529 9.77028 22.4529 9.75175 22.3595 9.71403C22.2661 9.67631 22.1813 9.62017 22.1101 9.54895C22.0388 9.47773 21.9827 9.39289 21.945 9.29951C21.9073 9.20612 21.8887 9.10609 21.8905 9.00539C21.8923 8.90468 21.9143 8.80537 21.9553 8.71337C21.9963 8.62137 22.0554 8.53857 22.1291 8.46991L24.8491 5.74991L0.75 5.96991C0.551088 5.96991 0.360321 5.89089 0.219669 5.75024C0.0790174 5.60959 -2.26758e-07 5.41882 -2.18063e-07 5.21991C-2.09369e-07 5.021 0.0790174 4.83023 0.219669 4.68958C0.360321 4.54893 0.551088 4.46991 0.75 4.46991L24.8491 4.24991L22.1291 1.52991Z" fill="#333333"/>
</svg>
